solid OpenSCAD_Model
  facet normal 0 0 1
    outer loop
      vertex 20 20 1.2
      vertex 18.795 18.795 1.2
      vertex 20 0 1.2
    endloop
  endfacet
  facet normal 0 0 1
    outer loop
      vertex 20 20 1.2
      vertex 1.195 18.795 1.2
      vertex 18.795 18.795 1.2
    endloop
  endfacet
  facet normal 0 0 1
    outer loop
      vertex 1.195 18.795 1.2
      vertex 0 20 1.2
      vertex 1.195 1.195 1.2
    endloop
  endfacet
  facet normal -0 0 1
    outer loop
      vertex 0 20 1.2
      vertex 1.195 18.795 1.2
      vertex 20 20 1.2
    endloop
  endfacet
  facet normal -0 0 1
    outer loop
      vertex 18.795 1.195 1.2
      vertex 20 0 1.2
      vertex 18.795 18.795 1.2
    endloop
  endfacet
  facet normal -0 0 1
    outer loop
      vertex 1.195 1.195 1.2
      vertex 20 0 1.2
      vertex 18.795 1.195 1.2
    endloop
  endfacet
  facet normal 0 0 1
    outer loop
      vertex 1.195 1.195 1.2
      vertex 0 0 1.2
      vertex 20 0 1.2
    endloop
  endfacet
  facet normal 0 0 1
    outer loop
      vertex 0 0 1.2
      vertex 1.195 1.195 1.2
      vertex 0 20 1.2
    endloop
  endfacet
  facet normal -1 0 0
    outer loop
      vertex 1.195 1.195 1.2
      vertex 1.195 18.795 2
      vertex 1.195 18.795 1.2
    endloop
  endfacet
  facet normal -1 -0 0
    outer loop
      vertex 1.195 18.795 2
      vertex 1.195 1.195 1.2
      vertex 1.195 1.195 2
    endloop
  endfacet
  facet normal 1 -0 0
    outer loop
      vertex 18.795 1.195 2
      vertex 18.795 18.795 1.2
      vertex 18.795 18.795 2
    endloop
  endfacet
  facet normal 1 0 0
    outer loop
      vertex 18.795 18.795 1.2
      vertex 18.795 1.195 2
      vertex 18.795 1.195 1.2
    endloop
  endfacet
  facet normal 0 -1 0
    outer loop
      vertex 1.195 1.195 1.2
      vertex 18.795 1.195 2
      vertex 1.195 1.195 2
    endloop
  endfacet
  facet normal 0 -1 -0
    outer loop
      vertex 18.795 1.195 2
      vertex 1.195 1.195 1.2
      vertex 18.795 1.195 1.2
    endloop
  endfacet
  facet normal 0 1 -0
    outer loop
      vertex 18.795 18.795 1.2
      vertex 1.195 18.795 2
      vertex 18.795 18.795 2
    endloop
  endfacet
  facet normal 0 1 0
    outer loop
      vertex 1.195 18.795 2
      vertex 18.795 18.795 1.2
      vertex 1.195 18.795 1.2
    endloop
  endfacet
  facet normal -1 0 0
    outer loop
      vertex 0 0 0
      vertex 0 20 1.2
      vertex 0 20 0
    endloop
  endfacet
  facet normal -1 -0 0
    outer loop
      vertex 0 20 1.2
      vertex 0 0 0
      vertex 0 0 1.2
    endloop
  endfacet
  facet normal -0 0 1
    outer loop
      vertex 1.195 18.795 2
      vertex 18.795 1.195 2
      vertex 18.795 18.795 2
    endloop
  endfacet
  facet normal 0 0 1
    outer loop
      vertex 18.795 1.195 2
      vertex 1.195 18.795 2
      vertex 1.195 1.195 2
    endloop
  endfacet
  facet normal 1 -0 0
    outer loop
      vertex 20 0 1.2
      vertex 20 20 0
      vertex 20 20 1.2
    endloop
  endfacet
  facet normal 1 0 0
    outer loop
      vertex 20 20 0
      vertex 20 0 1.2
      vertex 20 0 0
    endloop
  endfacet
  facet normal 0 1 -0
    outer loop
      vertex 20 20 0
      vertex 0 20 1.2
      vertex 20 20 1.2
    endloop
  endfacet
  facet normal 0 1 0
    outer loop
      vertex 0 20 1.2
      vertex 20 20 0
      vertex 0 20 0
    endloop
  endfacet
  facet normal 0 0 -1
    outer loop
      vertex 0 0 0
      vertex 20 20 0
      vertex 20 0 0
    endloop
  endfacet
  facet normal -0 0 -1
    outer loop
      vertex 20 20 0
      vertex 0 0 0
      vertex 0 20 0
    endloop
  endfacet
  facet normal 0 -1 0
    outer loop
      vertex 0 0 0
      vertex 20 0 1.2
      vertex 0 0 1.2
    endloop
  endfacet
  facet normal 0 -1 -0
    outer loop
      vertex 20 0 1.2
      vertex 0 0 0
      vertex 20 0 0
    endloop
  endfacet
endsolid OpenSCAD_Model
