solid OpenSCAD_Model
  facet normal -1 0 0
    outer loop
      vertex 0 0 0
      vertex 0 4 8
      vertex 0 4 0
    endloop
  endfacet
  facet normal -1 -0 0
    outer loop
      vertex 0 4 8
      vertex 0 0 0
      vertex 0 0 8
    endloop
  endfacet
  facet normal -0 0 1
    outer loop
      vertex 0 4 8
      vertex 16 0 8
      vertex 16 4 8
    endloop
  endfacet
  facet normal 0 0 1
    outer loop
      vertex 16 0 8
      vertex 0 4 8
      vertex 0 0 8
    endloop
  endfacet
  facet normal 1 -0 0
    outer loop
      vertex 4 0 4
      vertex 4 4 0
      vertex 4 4 4
    endloop
  endfacet
  facet normal 1 0 0
    outer loop
      vertex 4 4 0
      vertex 4 0 4
      vertex 4 0 0
    endloop
  endfacet
  facet normal 0 1 0
    outer loop
      vertex 16 4 8
      vertex 12 4 4
      vertex 0 4 8
    endloop
  endfacet
  facet normal 0 1 -0
    outer loop
      vertex 16 4 0
      vertex 12 4 4
      vertex 16 4 8
    endloop
  endfacet
  facet normal 0 1 0
    outer loop
      vertex 12 4 4
      vertex 16 4 0
      vertex 12 4 0
    endloop
  endfacet
  facet normal 0 1 -0
    outer loop
      vertex 4 4 4
      vertex 0 4 8
      vertex 12 4 4
    endloop
  endfacet
  facet normal 0 1 0
    outer loop
      vertex 0 4 0
      vertex 4 4 4
      vertex 4 4 0
    endloop
  endfacet
  facet normal 0 1 0
    outer loop
      vertex 4 4 4
      vertex 0 4 0
      vertex 0 4 8
    endloop
  endfacet
  facet normal 0 0 -1
    outer loop
      vertex 0 0 0
      vertex 4 4 0
      vertex 4 0 0
    endloop
  endfacet
  facet normal -0 0 -1
    outer loop
      vertex 4 4 0
      vertex 0 0 0
      vertex 0 4 0
    endloop
  endfacet
  facet normal 0 -1 0
    outer loop
      vertex 0 0 8
      vertex 4 0 4
      vertex 16 0 8
    endloop
  endfacet
  facet normal 0 -1 0
    outer loop
      vertex 0 0 0
      vertex 4 0 4
      vertex 0 0 8
    endloop
  endfacet
  facet normal 0 -1 -0
    outer loop
      vertex 4 0 4
      vertex 0 0 0
      vertex 4 0 0
    endloop
  endfacet
  facet normal 0 -1 0
    outer loop
      vertex 12 0 4
      vertex 16 0 8
      vertex 4 0 4
    endloop
  endfacet
  facet normal 0 -1 0
    outer loop
      vertex 16 0 0
      vertex 12 0 4
      vertex 12 0 0
    endloop
  endfacet
  facet normal 0 -1 0
    outer loop
      vertex 12 0 4
      vertex 16 0 0
      vertex 16 0 8
    endloop
  endfacet
  facet normal -1 0 0
    outer loop
      vertex 12 0 0
      vertex 12 4 4
      vertex 12 4 0
    endloop
  endfacet
  facet normal -1 -0 0
    outer loop
      vertex 12 4 4
      vertex 12 0 0
      vertex 12 0 4
    endloop
  endfacet
  facet normal 1 -0 0
    outer loop
      vertex 16 0 8
      vertex 16 4 0
      vertex 16 4 8
    endloop
  endfacet
  facet normal 1 0 0
    outer loop
      vertex 16 4 0
      vertex 16 0 8
      vertex 16 0 0
    endloop
  endfacet
  facet normal 0 0 -1
    outer loop
      vertex 12 0 0
      vertex 16 4 0
      vertex 16 0 0
    endloop
  endfacet
  facet normal -0 0 -1
    outer loop
      vertex 16 4 0
      vertex 12 0 0
      vertex 12 4 0
    endloop
  endfacet
  facet normal 0 0 -1
    outer loop
      vertex 4 0 4
      vertex 12 4 4
      vertex 12 0 4
    endloop
  endfacet
  facet normal -0 0 -1
    outer loop
      vertex 12 4 4
      vertex 4 0 4
      vertex 4 4 4
    endloop
  endfacet
endsolid OpenSCAD_Model
